<?xml version="1.0" standalone="no"?><!DOCTYPE svg PUBLIC "-//W3C//DTD SVG 1.1//EN" "http://www.w3.org/Graphics/SVG/1.1/DTD/svg11.dtd"><svg width="100%" height="100%" viewBox="0 0 800 600" version="1.1" xmlns="http://www.w3.org/2000/svg" xmlns:xlink="http://www.w3.org/1999/xlink" xml:space="preserve" style="fill-rule:evenodd;clip-rule:evenodd;stroke-linejoin:round;stroke-miterlimit:1.41421;"><g><g><path d="M98.654,568.889l-84.222,0l148.389,-309.608l81.372,0l2.317,1.111l-147.856,308.497Z" style="fill:#777;"/><path d="M277.095,569.867c0,0 0,0 0,0ZM303.813,494.014l-36.338,75.818l-250.7,-0.908l36.676,-75.817l250.362,0.907Z" style="fill:#777;"/><path d="M415.878,260.195l-36.338,75.818l-252.3,-0.915l36.676,-75.817l251.962,0.914Z" style="fill:#777;"/></g><g><path d="M697.562,260.26l84.222,0l-148.388,309.607l-81.372,0l-2.318,-1.111l147.856,-308.496Z" style="fill:#333;"/><path d="M519.122,259.281c0,0 0,0 0,0ZM492.403,335.134l36.338,-75.818l250.7,0.909l-36.676,75.817l-250.362,-0.908Z" style="fill:#333;"/><path d="M380.339,568.954l36.338,-75.818l252.3,0.914l-36.676,75.817l-251.962,-0.913Z" style="fill:#333;"/></g><path d="M540.756,29l84.222,0l-259.226,540.867l-84.222,0l259.226,-540.867Z" style="fill:#333;"/></g></svg>