<svg xmlns="http://www.w3.org/2000/svg" viewBox="0 0 60 60">
    <style>
        @import url(styles.css);
    </style>
    <path class="icon-colour" d="M13.87 30c0 .058.003.114.003.17v-.342c0 .058-.004.114-.004.172zm32.26 0a15.39 15.39 0 0 0-5.322-11.654L31.88 29.72l7.93 12.732c3.832-2.808 6.32-7.338 6.32-12.452zm-6.703-12.725a15.36 15.36 0 0 0-8.728-2.707c-8.13 0-14.79 6.288-15.386 14.265h15.038l9.073-11.558zM15.282 30.58c.306 8.253 7.09 14.85 15.417 14.85 2.78 0 5.39-.74 7.642-2.028L30.36 30.58H15.28z" fill="#FFF"/>
</svg>
