<svg xmlns="http://www.w3.org/2000/svg" viewBox="0 0 60 60">
    <style>
        @import url(styles.css);
    </style>
    <path class="icon-colour" d="M20.427 46h19.148V25.64H20.427V46zM33.62 29.717a1.12 1.12 0 0 1 2.24 0v11.797a1.12 1.12 0 0 1-2.24 0V29.717zm-4.74 0a1.12 1.12 0 0 1 2.24 0v11.797a1.12 1.12 0 0 1-2.24 0V29.717zm-4.736 0a1.12 1.12 0 0 1 2.24 0v11.797a1.12 1.12 0 0 1-2.24 0V29.717zm16.377-11.75h-4.16v-.682A3.288 3.288 0 0 0 33.077 14h-6.148a3.284 3.284 0 0 0-3.285 3.285v.682H19.48c-.854 0-1.548.69-1.548 1.548v4.1h24.14v-4.1c0-.857-.692-1.548-1.55-1.548zm-6.4 0h-8.24v-.682c0-.578.47-1.045 1.05-1.045h6.147c.578 0 1.045.467 1.045 1.045v.682z" fill="#FFF"/>
</svg>
