<svg xmlns="http://www.w3.org/2000/svg" viewBox="0 0 60 60">
    <style>
        @import url(styles.css);
    </style>
    <path class="icon-colour" d="M30 14c-8.837 0-16 7.164-16 16 0 8.837 7.163 16 16 16 8.836 0 16-7.163 16-16 0-8.836-7.164-16-16-16zm0 29.24c-7.3 0-13.24-5.94-13.24-13.24S22.7 16.76 30 16.76 43.24 22.7 43.24 30 37.3 43.24 30 43.24zm-1.908-2.75h4.118v-3.98h-4.118v3.98zm6.88-19.02c-1.374-.99-3.098-1.487-5.172-1.487-1.58 0-2.91.35-3.994 1.047-1.717 1.092-2.63 2.947-2.74 5.564h3.98c0-.762.222-1.496.667-2.203.444-.705 1.198-1.06 2.26-1.06 1.08 0 1.825.29 2.232.86.407.577.612 1.21.612 1.91 0 .606-.183 1.16-.55 1.667a3.51 3.51 0 0 1-.796.813l-1 .784c-.99.77-1.6 1.453-1.84 2.045-.24.59-.384 1.663-.44 3.214h3.734c.01-.735.068-1.276.178-1.625.175-.553.527-1.035 1.06-1.448l.974-.758c.99-.77 1.658-1.405 2.005-1.9.595-.818.893-1.823.893-3.017 0-1.947-.686-3.416-2.06-4.407z" fill="#FFF"/>
</svg>
