<svg xmlns="http://www.w3.org/2000/svg" viewBox="0 0 60 60">
    <style>
        @import url(styles.css);
    </style>
    <path class="icon-colour" d="M37.82 22.53c-3.598-1.233-5.776.26-7.14 1.478a337.634 337.634 0 0 1-.2-4.748c.144.27.34.51.607.653 7.436 3.88 10.846-5.386 10.846-5.386s-2.19.852-4.64.098c-3.453-1.142-5.99-.373-6.876 1.32 0-.24.006-.457.012-.64.07-1.832-3.324-1.68-3.12.108.062.555.685 3.93 1.624 8.263-1.38-1.133-3.48-2.27-6.756-1.148-4.74 1.624-5.533 7.56-3.98 13.628 1.537 6.005 5.902 13.48 11.8 7.85 5.733 5.02 10.29-1.966 11.797-7.85 1.554-6.065.762-12.003-3.977-13.626z" fill="#FFF"/>
</svg>
