<svg xmlns="http://www.w3.org/2000/svg" viewBox="0 0 60 60">
    <style>
        @import url(styles.css);
    </style>
    <path class="icon-colour" fill="none" d="M38.937 18.39l-2.788-2.787v2.787zM22.09 14.875h12.3v3.515h-12.3zm20.362 7.03l-2.787-2.787v2.787zm-2.787 1.758h3.515V39.48h-3.515z"/>
    <path class="icon-colour" d="M41.543 46.883H14.938v-30.12h7.172v22.95h19.434v7.17zm-24.605-2h22.605v-3.17H20.11v-22.95h-3.172v26.12z" fill="#FFF"/>
    <path class="icon-colour" fill="none" d="M22.09 14.875h12.3v3.515h-12.3zm20.362 7.03l-2.787-2.787-.728-.728-2.788-2.787v6.302h3.513zm-2.787 1.758h3.515V39.48h-3.515z"/>
    <path class="icon-colour" d="M36.274 13.117H20.456v28.12h24.607v-19.33l-8.79-8.79zm0 5.273v-2.787l2.787 2.787.73.728 2.788 2.787h-6.3V18.39zm7.03 21.09h-21.09V14.876h12.303v8.788h8.788V39.48z" fill="#FFF"/>
    <path class="icon-colour" fill="#FFF" d="M27.235 27.272h14.312v1.506H27.235zm0 3.013h14.312v1.506H27.235zm0 3.013h14.312v1.506H27.235zm0 3.012h7.156v1.507h-7.153zM23.97 15.754h.88v21.97h-.88z"/>
</svg>
