<svg xmlns="http://www.w3.org/2000/svg" viewBox="0 0 60 60">
    <style>
        @import url(styles.css);
    </style>
    <path class="icon-colour" d="M41 19v23.833H20.855c-.045 0-.09-.007-.136-.01-.077-.004-.145-.012-.213-.02-.387-.054-.768-.2-1.053-.493-.247-.272-.372-.615-.422-.96-.015-.11-.033-.22-.033-.35 0-1.476 1.01-1.812 1.832-1.833h18.333V15.334H30v12.833L26.333 24.5l-3.667 3.667V15.333h-1.833s-3.667 0-3.667 3.667v22s.01.314.097.743c.118.71.378 1.256.73 1.66.064.08.137.153.21.23.074.07.148.144.228.206.407.352.95.61 1.66.73.43.086.745.097.745.097h22V19H41z" fill="#FFF"/>
</svg>
