<svg xmlns="http://www.w3.org/2000/svg" viewBox="0 0 60 60">
    <style>
        @import url(styles.css);
    </style>
    <path class="icon-colour" d="M26.577 26.487L23.01 22.92A9.907 9.907 0 0 1 30 20.047a9.915 9.915 0 0 1 7.036 2.914A9.908 9.908 0 0 1 39.95 30h4.327c0-7.886-6.39-14.276-14.277-14.278-3.916 0-7.47 1.582-10.05 4.138l-3.293-3.293v9.92h9.92zm10.496 10.51A9.9 9.9 0 0 1 30 39.95a9.9 9.9 0 0 1-7.036-2.914A9.91 9.91 0 0 1 20.05 30h-4.327c0 7.887 6.39 14.275 14.277 14.278 3.958 0 7.547-1.617 10.133-4.222l3.203 3.204v-9.68h-9.68l3.417 3.416z" fill="#FFF"/>
</svg>
