<svg xmlns="http://www.w3.org/2000/svg" viewBox="0 0 60 60">
    <style>
        @import url(styles.css);
    </style>
    <path class="icon-colour" d="M16.76 46h12.318V32.298H16.76V46zm27.76-23.267h-7.224c.513-.263.97-.54 1.376-.832 1.564-1.112 2.387-2.53 2.384-3.936 0-1.152-.548-2.17-1.34-2.858A4.525 4.525 0 0 0 36.746 14c-1.2 0-2.315.415-3.27 1.052-1.437.963-2.567 2.415-3.372 4.007-.04.075-.076.152-.113.23a12.916 12.916 0 0 0-1.023-1.765c-.68-.972-1.5-1.834-2.46-2.474-.955-.636-2.07-1.052-3.27-1.052-1.196.004-2.29.505-3.11 1.276-.815.772-1.388 1.856-1.39 3.088-.003.72.207 1.47.64 2.154.542.858 1.402 1.603 2.592 2.213h-6.49c-.865 0-1.567.702-1.567 1.567v5.81H29.08V22.73h1.843v7.376H46.09V24.3c0-.865-.7-1.567-1.566-1.567zM22.495 20.43c-.612-.385-.984-.773-1.2-1.118a1.75 1.75 0 0 1-.293-.947c-.003-.498.246-1.028.682-1.44.43-.408 1.013-.658 1.54-.658h.012c.674 0 1.345.228 2.015.674 1 .665 1.946 1.825 2.605 3.14.337.666.6 1.37.777 2.056-3.033-.314-5-.985-6.135-1.704zm10.38-1.603c.546-.785 1.19-1.444 1.857-1.887.67-.444 1.343-.672 2.017-.674h.004c.565 0 1.1.217 1.47.542.373.332.564.728.565 1.154-.004.505-.27 1.24-1.445 2.1-1.12.814-3.053 1.65-6.035 2.232a10.438 10.438 0 0 1 1.564-3.467zM30.92 46h12.32V32.298H30.922V46z" fill="#FFF"/>
</svg>
