<svg xmlns="http://www.w3.org/2000/svg" viewBox="0 0 60 60">
    <style>
        @import url(styles.css);
    </style>
    <path class="icon-colour" d="M29.058 16.503v-2.126h1.885v2.126C39.34 16.99 46 23.955 46 32.475h-.34a3.927 3.927 0 0 0-3.694-2.605 3.924 3.924 0 0 0-3.695 2.605h-.585a3.926 3.926 0 0 0-3.695-2.605 3.91 3.91 0 0 0-3.07 1.488v10.86a3.406 3.406 0 0 1-6.81 0 .918.918 0 0 1 1.833 0 1.57 1.57 0 0 0 3.14 0V31.36a3.905 3.905 0 0 0-3.07-1.488 3.925 3.925 0 0 0-3.695 2.605h-.588a3.926 3.926 0 0 0-3.696-2.605 3.924 3.924 0 0 0-3.694 2.605H14c0-8.52 6.66-15.484 15.058-15.972z" fill="#FFF"/>
</svg>
