<svg xmlns="http://www.w3.org/2000/svg" viewBox="0 0 60 60">
    <style>
        @import url(styles.css);
    </style>
    <path class="icon-colour" d="M39.77 26.416c-.68 0-1.77.202-1.77.538v-5.317C38 20.45 37.233 20 36.045 20H30.49c.334 0 .537-1.367.537-2.05 0-1.946-1.578-3.622-3.525-3.622S23.977 16.053 23.977 18c0 .682.202 2 .538 2h-5.317C18.01 20 17 20.45 17 21.637v5.905c1-.688 1.576-1.125 2.592-1.125a3.535 3.535 0 0 1 3.537 3.525c0 1.947-1.598 3.525-3.544 3.525-1.017 0-1.587-.437-2.587-1.125v6.144C17 39.672 18.01 41 19.197 41h5.252c-.292 1-.473.797-.473 1.43 0 1.948 1.578 3.375 3.525 3.375s3.525-1.352 3.525-3.298c0-.633-.18-.506-.473-1.506h5.49C37.234 41 38 39.674 38 38.486V32.93c0 .334 1.09.537 1.77.537a3.525 3.525 0 0 0 0-7.05z" fill="#FFF"/>
</svg>
