<svg xmlns="http://www.w3.org/2000/svg" viewBox="0 0 60 60">
    <style>
        @import url(styles.css);
    </style>
    <path class="icon-colour" d="M43.777 25.806c1.836-2.298 3.726-6.554.392-9.865-1.198-1.184-2.594-1.785-4.15-1.785-2.416 0-4.57 1.48-5.627 2.34l-.04-.04-.635.64-.003.003-.64.643h.002l-1.81 1.82-.01-.007-.626.65-.64.645.01.01-11.86 12.304-2.866 2.88-.09 4.48L14 45.848l5.116-.756 4.705.492 2.63-2.49.016.015.647-.644.654-.62-.014-.014L39.557 30.13l.005.004.616-.618.666-.66-.005-.005 1.703-1.713.012.012.63-.66.634-.638-.04-.04zm-7.723.923L24.394 38.33l-2.237-2.33 11.58-11.525 2.317 2.25zm-3.618-3.516l-11.533 11.48-.86-.897 11.262-11.682 1.13 1.098zm-7.24 18.57l-2.015 1.91-3.625-.38-2.55-3.007.068-3.505 1.704-1.712.514.536 5.91 6.158zm1.3-1.26l-.848-.885 11.706-11.65.902.875-11.76 11.66zm13.042-12.94l-6.966-6.763 1.794-1.806 2.026 2.01 4.865 4.83-1.72 1.73z" fill="#FFF"/>
</svg>
