<svg xmlns="http://www.w3.org/2000/svg" viewBox="0 0 60 60">
    <style>
        @import url(styles.css);
    </style>
    <path class="icon-colour" d="M39.143 14L14 39.143 20.857 46 46 20.857 39.143 14zm-1.22 2.943l2.22 2.22-.888.888-2.22-2.22.888-.885zM20.96 41.573l-3.834-3.833.888-.888 3.834 3.834-.888.888zm.605-3.833l-2.22-2.22.89-.888 2.22 2.22-.89.888zm3.834-.605L21.562 33.3l.888-.887 3.835 3.834-.888.888zM26 33.3l-2.22-2.22.888-.885 2.22 2.22-.887.888zm3.834-.602l-3.834-3.834.888-.888 3.835 3.834-.888.887zm.605-3.834l-2.22-2.22.89-.888 2.22 2.22-.89.888zm3.835-.605l-3.834-3.835.89-.888 3.834 3.834-.888.888zm.605-3.835l-2.22-2.22.89-.888 2.22 2.22-.89.888zm3.768-.538l-3.835-3.834.888-.887L39.537 23l-.888.887z" fill="#FFF"/>
</svg>
