<svg xmlns="http://www.w3.org/2000/svg" viewBox="0 0 60 60">
    <style>
        @import url(styles.css);
    </style>
    <path class="icon-colour" d="M23.997 34.373a5.028 5.028 0 0 0-2.815-9.192 5.028 5.028 0 0 0-2.817 9.19A7.182 7.182 0 0 0 14 40.98c0 4.567 3.217 5.746 7.18 5.746 3.964 0 7.182-1.178 7.182-5.746a7.18 7.18 0 0 0-4.365-6.607zm17.637 0a5.02 5.02 0 0 0 2.212-4.164 5.028 5.028 0 1 0-7.843 4.162 7.184 7.184 0 0 0-4.366 6.606c0 4.566 3.217 5.745 7.18 5.745 3.964 0 7.182-1.178 7.182-5.746a7.18 7.18 0 0 0-4.368-6.608zM34.1 23.11c1.632-1.026 2.666-2.542 2.666-4.23 0-3.097-3.466-5.606-7.74-5.606s-7.74 2.51-7.74 5.605c0 3.092 3.566 6.53 7.74 5.6 2.4-.532 1.333 4.805 2.4 3.205.456-.683 2.043-4.178 2.674-4.576z" fill="#FFF"/>
</svg>
