<svg xmlns="http://www.w3.org/2000/svg" viewBox="0 0 60 60">
    <style>
        @import url(styles.css);
    </style>
    <path class="icon-colour" d="M29.683 27.283c.002-.005.005-.007.007-.01a.657.657 0 0 1-.014-.077l.007.087zm6.146 6.71l-.008-.002s.003 0 .005.005zm.154.02c-.038-.008-.123.004-.157-.02-.022.07.008.097.156.02zM30 14c-8.835 0-16 7.163-16 16s7.164 16 16 16 16-7.163 16-16-7.165-16-16-16zm10.22 6.25c-.552.018-.935.018-1.377.324-.178.124-.3.285-.528.35-.202.056-.42.006-.623.075-.727.244-.613 1.8-1.57 1.566-.45-.11-.766-.642-.994-.99-.2-.306-.56-.558-.316-.94-.112.028-.23-.005-.342.017.154-.338.668-.307.753-.48.214-.43-.587-.475-.813-.537.273-.29.41.1.682.033.26-.064-.138-.404-.292-.445-.057-.012-.97.254-.442-.22-.65-.415-1.303-.83-1.954-1.247-.112.46.868.723 1.186.887-.05.19-.347.468-.575.387-.214-.078-.126-.433-.45-.397-.23.537.488.38.555.708.076.376-.27.216-.404.212-.033-.002-.28-.262-.295-.064-.014.23.4.14.428.377-.48.02-.727-.155-1.12-.417-.46-.304-.692-.276-1.255-.276.17-.07.4-.12.545-.233.078-.06.385-.36.406-.424.087-.29-.004-.267-.28-.455-.244-.17-.54-.467-.838-.527-1.074-.216-.333.97-1.148 1.134l.04.003h-.044c0-.002.002-.002.005-.002-.19-.006-.543-.05-.667.048-.087.068-.094.35-.19.453-.17.18-.424.216-.63.35-.2.127-.636.455-.752.68-.432.82.97 1.08 1.5 1.32.24.11.94.256 1.073.44.176.24-.15.472.216.643.115.055.356.064.46-.048.162-.185-.068-.226-.11-.44-.075-.41.05-.247.258-.4.418-.308.326-.327.174-.82-.07-.232-.335-.873-.102-1.042.304-.223.95.12 1.184.147.272.034.427.41.574.564.097.1.273.316.445.295.273-.04.16-.278.316-.387.422-.295.534.105.703.504.158.372.308.512.59.752.132.11.707.51.652.755-.036.166-.694.418-.868.473-.642.204-1.847-.333-1.975.687.245-.093.953-.673 1.167-.4.094.127-.08.308-.037.43.12.372.407.243.707.182a.516.516 0 0 1-.064.035c.41-.21.366-.166.554-.51.062-.11.154-.38.24-.46.297-.273.345-.086.528.126.048.058.504.71.342.68-.53-.106-1.04-.092-1.478.198-.255.165-.495.39-.797.503-.07.026-.608.08-.547-.014.093-.134.41-.222.537-.367-.347-.144-.64.173-.913.36-.29.136-.358.393-.605.62-.11.095-.314.112-.418.24-.106.126-.117.323-.215.442-.07.083-.245.03-.316.157-.094.163.085.315.047.434-.07.214-.48.397-.637.55.02-.02.04-.042.062-.06-.157.163-.357.284-.478.474.055.27.233.912.183 1.06-.162.486-.48-.265-.608-.46-.443-.666-1.33-.22-1.933-.164-.772.068-1.528 1.073-1.053 1.886.228.39.613.542 1.055.452.39-.08.51-.63.88-.642.68-.017.013.668-.046.917-.055.232.086.256.326.313.175.04.427-.076.58.024.096.065.092.414.225.305-.262.215-.202.73.066.914.3.207.65.017.96.095.59.15.31-.046.825-.358.347-.21.404.04.644.04.16.002.262-.233.533-.164.22.056.31.227.57.265.11.017.22-.04.323-.028.487.055.863.366 1.245.646.317.234.53.186.897.293.27.076.77.468.744.81-.004.062-.24.37-.28.51.07.05.55-.058.693-.07-.048.055-.376.285-.376.162 0 .064.233.193.288.233.17-.556.452-.2.79-.062.287.118.64.125.947.198.26.062.833.238 1.028.45.23.253.07.67-.102.924-.223.335-.56.46-.7.856-.113.31-.03.625-.094.97-.086.466-.152.302-.454.587-.252.24-.005.198-.347.353-.346.152-.65.107-.89.487.01-.024.02-.047.024-.074-.1.143-.15.43-.2.525-.12.244-.285.398-.478.6-.075.076-.747.996-.785.92-.05-.095-.58.097-.606-.04.02.116-.006.078.127.145-.124.755-.442.867-1.184.874.064.364-.27.29-.423.485-.09.115-.134.434-.198.58-.04.094-.33.467-.33.54 0 .068.098.167.19.262a14.27 14.27 0 0 1-1.6.22c.104-.13.128-.24-.193-.255.085-.235.287-.368.372-.597.043-.107.007-.15.043-.254.12-.367.067-.23 0-.515-.157-.668.055-.85.238-1.462.19-.627.17-1.443.29-2.12.058-.323.15-.998.037-1.305-.126-.346-.684-.617-.94-.85-.36-.328-.553-.684-.82-1.093-.137-.203-.293-.408-.398-.63-.23-.483 0-.196.037-.48.035-.274-.034-.52.075-.807.12-.318.42-.518.52-.84.09-.284.02-.643-.272-.738-.163-.052-.344.07-.51.043-.226-.038-.485-.21-.666-.345-.252-.193-.345-.502-.613-.682-.222-.15-.382-.06-.62-.132-.25-.074-.403-.38-.605-.478-.303-.145-.474.064-.79.02-.273-.035-.687-.336-.94-.448-.517-.23-.83-.485-1.035-1.01-.177-.447-.434-.656-.736-1.03-.31-.38-.405-.7-.878-.802-.057-.012.116.397.133.43.17.314.423.6.627.89.3.43.17.51-.133.096-.35-.475-.757-.948-1.06-1.452-.116-.19-.093-.31-.283-.492-.183-.176-.42-.26-.606-.425-.66-.597-.78-1.39-.705-2.24.024-.275.124-.496.08-.762-.037-.22-.165-.403-.33-.565a14.48 14.48 0 0 0-.192-.305c-.15-.247-.266-.494-.504-.7a12.533 12.533 0 0 0-.828-.624 14.25 14.25 0 0 1 5.712-4.27c.02.114.065.226.14.335.182.274.36.253.72.33-.04.42-.53.423-.86.38-.396-.056-.812-.186-1.154.16.187.113.707.557.638.094.378-.02.746-.03 1.117.014.148.02.648.184.783.11.055-.033.116-.313.176-.4-.106 0-.22-.05-.324-.042.245-.315.49-.067.8.075-.34.213-.14.71.198.305.276-.336-.066-.58-.418-.773.354-.442.573-.482.905.017.056-.31.305-.185.564-.16v-.08c-.115.005-.24-.06-.35-.05.264-.423.095-.518.473-.658.302-.11 1.162-.007 1.27-.29-.605.116-1.332.145-1.874.418-.236.12-.514.493-.747.25-.24-.25.17-.65.38-.77h-.05c.953-.2 1.94-.31 2.95-.31.655 0 1.297.048 1.927.136-.22.113-.058.19-.215.308-.304.223-.844.41-1.205.55.46 0 1.57.432 1.785-.212a22.703 22.703 0 0 0-.444-.07c.278-.182.587-.332.91-.44a14.16 14.16 0 0 1 7.505 4.144h-.045zm2.59 5.617c.025-.055.087-.074.113-.12.052-.098.04-.165.107-.248.07-.09.164-.115.242-.186a.26.26 0 0 0 .064-.08c.238.657.425 1.337.56 2.036a.033.033 0 0 1-.01.02c-.034.026-.258.06-.305.06-.16.007-.28-.1-.396-.202-.12-.103-.26-.24-.342-.374-.09-.143-.032-.29-.03-.452.007-.14-.06-.334 0-.457zm.182 7.337c-.276-.24-.6-.56-.794-.867-.21-.33-.08-.67-.067-1.048.017-.32-.14-.77-.004-1.058.062-.13.204-.174.264-.28.123-.226.094-.38.246-.575.164-.21.385-.26.568-.424.19-.174.185-.31.307-.53.09-.16.297-.428.494-.568a14.153 14.153 0 0 1-.316 5.79c-.264-.07-.482-.26-.694-.444z" fill="#FFF"/>
</svg>
