<svg xmlns="http://www.w3.org/2000/svg" viewBox="0 0 60 60">
    <style>
        @import url(styles.css);
    </style>
    <path class="icon-colour" d="M40.635 12.984h-21.27a2.127 2.127 0 0 0-2.127 2.127v29.78c0 1.175.95 2.127 2.127 2.127h21.27a2.126 2.126 0 0 0 2.127-2.127V15.11c0-1.174-.95-2.126-2.127-2.126zM23.62 42.762a2.126 2.126 0 0 1 0-4.254 2.127 2.127 0 0 1 0 4.254zm0-6.38a2.126 2.126 0 0 1 0-4.255 2.127 2.127 0 0 1 0 4.254zm0-6.382a2.126 2.126 0 0 1 0-4.254 2.127 2.127 0 0 1 0 4.254zM30 42.762a2.126 2.126 0 0 1 0-4.254 2.127 2.127 0 0 1 0 4.254zm0-6.38a2.126 2.126 0 0 1 0-4.255 2.127 2.127 0 0 1 0 4.254zM30 30a2.126 2.126 0 0 1 0-4.254A2.127 2.127 0 0 1 30 30zm6.38 12.762a2.126 2.126 0 0 1 0-4.254 2.127 2.127 0 0 1 0 4.254zm0-6.38a2.126 2.126 0 0 1 0-4.255 2.127 2.127 0 0 1 0 4.254zm0-6.382a2.126 2.126 0 0 1 0-4.254 2.127 2.127 0 0 1 0 4.254zm2.128-6.38H21.492v-6.382h17.016v6.38z" fill="#FFF"/>
</svg>
