<svg xmlns="http://www.w3.org/2000/svg" viewBox="0 0 60 60">
    <style>
        @import url(styles.css);
    </style>
    <g fill="#FFF">
        <path class="icon-colour" d="M40.677 39.26a1.887 1.887 0 0 1-1.884 1.885H21.206a1.887 1.887 0 0 1-1.884-1.884V20.74c0-1.04.844-1.885 1.884-1.885h15.85c.704-.612 1.44-1.23 2.204-1.852a3.745 3.745 0 0 0-.466-.032H21.206a3.768 3.768 0 0 0-3.768 3.77v18.52a3.767 3.767 0 0 0 3.768 3.77h17.587a3.768 3.768 0 0 0 3.768-3.77V26.39a94.85 94.85 0 0 0-1.88 2.55v10.32z"/>
        <path class="icon-colour" d="M43.772 17.47c-8.832 5.42-15.244 12.25-18.124 15.68l-7.053-5.526-3.115 2.51L27.668 42.53c2.097-5.373 8.74-15.874 16.852-23.334l-.748-1.725z"/>
    </g>
</svg>
