<svg xmlns="http://www.w3.org/2000/svg" viewBox="0 0 60 60">
    <style>
        @import url(styles.css);
    </style>
    <path class="icon-colour" d="M46 40.953c0 1.1-.9 2-2 2H20.56c-1.1 0-2-.9-2-2V27.14c0-1.1.9-2 2-2H44c1.1 0 2 .9 2 2v13.813z" fill="#FFF"/>
    <path class="icon-colour" d="M34.856 17.047c-.55 0-1.25.373-1.558.83l-1.557 2.316c-.304.456-1.005.83-1.555.83H15c-.55 0-1 .45-1 1V37.84c0 .55.45 1 1 1h.827c.55 0 1-.45 1-1V24.615c0-.55.45-1 1-1h22.61c.55 0 1-.37 1-.825v-4.743c0-.55-.45-1-1-1h-5.58z" fill="#FFF"/>
</svg>
