<svg xmlns="http://www.w3.org/2000/svg" viewBox="0 0 60 60">
    <style>
        @import url(styles.css);
    </style>
    <path class="icon-colour" d="M22.157 23.3c2.57 0 4.65-2.08 4.65-4.65S24.727 14 22.157 14a4.65 4.65 0 1 0 0 9.3zm4.753.78h-9.507c-1.037 0-1.88.843-1.88 1.88v9.848h2.686V46H26.1V35.808h2.686V25.96a1.88 1.88 0 0 0-1.88-1.88zm10.933-.78c2.57 0 4.65-2.08 4.65-4.65S40.413 14 37.843 14a4.65 4.65 0 1 0 0 9.3zm4.754.78H33.09c-1.037 0-1.88.843-1.88 1.88v9.848h2.686V46h7.895V35.808h2.69V25.96a1.88 1.88 0 0 0-1.88-1.88z" fill="#FFF"/>
</svg>
