<svg xmlns="http://www.w3.org/2000/svg" viewBox="0 0 60 60">
    <style>
        @import url(styles.css);
    </style>
    <path class="icon-colour" d="M33.67 30.926v4.292h-7.318v-4.292h-12.33V43.6H46V30.925H33.67zm-7.32-4.804h7.32v2.925h12.327V23.27c0-.86-.696-1.558-1.558-1.558h-5.747v-2.004A3.307 3.307 0 0 0 35.39 16.4H24.61a3.306 3.306 0 0 0-3.306 3.308v2.004h-5.746A1.56 1.56 0 0 0 14 23.27v5.777h12.35v-2.925zm-2.792-6.414c0-.58.47-1.052 1.052-1.053h10.78c.582 0 1.052.472 1.052 1.053v2.004H23.558v-2.004zm8.266 13.672v-5.43h-3.648v5.43h3.648z" fill="#FFF"/>
</svg>
