<svg xmlns="http://www.w3.org/2000/svg" viewBox="0 0 60 60">
    <style>
        @import url(styles.css);
    </style>
    <path class="icon-colour" d="M30.98 46.89h-1.794v-3.683c-2.432-.27-4.246-.802-5.442-1.592-2.11-1.42-3.147-3.838-3.11-7.256h4.998c.173 1.552.414 2.595.723 3.125.48.827 1.425 1.364 2.832 1.61V31.19l-1.5-.443c-2.357-.69-4.02-1.654-4.988-2.89-.97-1.232-1.456-2.72-1.456-4.46 0-1.147.188-2.19.564-3.128a7.145 7.145 0 0 1 1.582-2.426c.876-.877 1.85-1.48 2.925-1.814.653-.21 1.61-.363 2.87-.462v-2.462h1.794v2.5c2.002.16 3.575.653 4.717 1.48 2.075 1.32 3.15 3.46 3.224 6.423h-4.867c-.098-1.1-.28-1.9-.55-2.407-.462-.876-1.304-1.357-2.523-1.444v7.053c2.926 1.012 4.89 1.907 5.898 2.685 1.66 1.294 2.488 3.12 2.488 5.477 0 3.11-1.142 5.368-3.425 6.775-1.393.863-3.046 1.37-4.96 1.518v3.72zM29.188 19.7c-1.074.024-1.87.31-2.39.86-.517.55-.776 1.3-.776 2.25 0 1.035.39 1.856 1.168 2.46.432.334 1.098.643 2 .926V19.7zm1.792 19.34c.965-.123 1.667-.345 2.106-.666.77-.567 1.152-1.55 1.152-2.943 0-1.06-.36-1.9-1.08-2.516-.427-.357-1.152-.728-2.178-1.11v7.237z" fill="#FFF"/>
</svg>
