<svg xmlns="http://www.w3.org/2000/svg" viewBox="0 0 60 60">
    <style>
        @import url(styles.css);
    </style>
    <path class="icon-colour" d="M29.58 15.37c4.896.528 5.87 5.358 5.87 7.016h3.318L32.96 27.81l-5.807-5.424h3.32c0-1.53-.948-3.86-2.937-4.247-3.236-.63-4.578 2.863-4.578 2.863s1.61-6.175 6.623-5.634zm.946 29.26c-4.894-.528-5.87-5.358-5.87-7.017H21.34l5.807-5.424 5.807 5.42h-3.32c0 1.53.948 3.86 2.937 4.248 3.24.63 4.58-2.867 4.58-2.867s-1.61 6.177-6.622 5.636zm-7.34-20.93c-4.893.53-5.87 5.358-5.87 7.016H14l5.808 5.425 5.807-5.422h-3.32c.002-1.53.95-3.86 2.937-4.247 3.236-.63 4.578 2.866 4.578 2.866S28.2 23.16 23.187 23.7zm13.628 12.407c4.895-.528 5.87-5.357 5.87-7.016l3.316.004-5.807-5.425-5.807 5.423 3.32.002c0 1.53-.95 3.86-2.937 4.246-3.238.63-4.58-2.865-4.58-2.864 0 0 1.61 6.174 6.622 5.634z" fill="#FFF"/>
</svg>
