<svg xmlns="http://www.w3.org/2000/svg" viewBox="0 0 60 60">
    <style>
        @import url(styles.css);
    </style>
    <path class="icon-colour" d="M45.52 46c0-3.114-.22-5.324-1.332-6.78-1.023-1.337-2.852-2.196-4.105-2.602-4.802-1.553-7.203-.987-7.203-1.975 0-.99-.15-2.4.222-2.64.838-.544 1.414-1.16 2.078-2.01.664-.846 1.2-1.856 1.572-2.977s.576-2.353.576-3.647a11.62 11.62 0 0 0-.576-3.65 9.846 9.846 0 0 0-1.572-2.978c-.664-.848-1.454-1.534-2.332-2.008A5.977 5.977 0 0 0 29.992 14a5.977 5.977 0 0 0-2.856.736c-.878.474-1.668 1.16-2.332 2.008-.664.848-1.2 1.857-1.572 2.978s-.577 2.354-.577 3.647c0 1.29.205 2.523.577 3.644a9.88 9.88 0 0 0 1.572 2.978c.664.848 1.26 1.473 2.086 2.008.37.24.23 1.654.23 2.643s-2.4.424-7.203 1.977c-1.253.406-3.082 1.26-4.105 2.6C14.7 40.676 14.48 42.886 14.48 46h31.04z" fill="#FFF"/>
</svg>
