<svg xmlns="http://www.w3.org/2000/svg" viewBox="0 0 60 60">
    <style>
        @import url(styles.css);
    </style>
    <path class="icon-colour" d="M14 32.09c0 4.354 4.423 7.933 10.083 8.35 1.318 2.838 6.704 2.84 6.704 2.84-1.676-.838-2.34-2.17-2.608-3.11 4.725-.98 8.2-4.223 8.2-8.08 0-4.636-5.01-8.395-11.19-8.395S14 27.455 14 32.09zm25.592-15.37c-3.54 0-6.408 2.15-6.408 4.805 0 2.21 1.99 4.066 4.697 4.628a2.815 2.815 0 0 1-1.49 1.78s3.084 0 3.838-1.626c3.24-.24 5.773-2.287 5.773-4.782 0-2.654-2.87-4.806-6.407-4.806z" fill="#FFF"/>
</svg>
