<svg xmlns="http://www.w3.org/2000/svg" viewBox="0 0 60 60">
    <style>
        @import url(styles.css);
    </style>
    <g fill="#FFF">
        <path class="icon-colour" d="M21.914 21.792c.753 0 1.363-.61 1.363-1.363v-4.91a1.363 1.363 0 0 0-2.726 0v4.91c0 .75.61 1.36 1.366 1.36zm16.42 0c.752 0 1.362-.61 1.362-1.363v-4.91a1.363 1.363 0 0 0-2.726 0v4.91c0 .75.61 1.36 1.363 1.36zm1.81-5.088v1.443a2.73 2.73 0 0 1 .928 2.05 2.74 2.74 0 0 1-5.477 0c0-.817.36-1.55.926-2.05v-1.443H23.73v1.443a2.73 2.73 0 0 1 .926 2.05 2.74 2.74 0 0 1-5.477 0c0-.817.36-1.55.926-2.05v-1.443H14v29.14h32v-29.14h-5.855zm2.933 26.218H16.922V24.716h26.155v18.206z"/>
        <path class="icon-colour" d="M29.614 40.017h-9.178v-1.765h3.61v-7.57c-1.2 1.047-2.292 1.767-3.276 2.16v-2.16c1-.382 1.628-.652 1.88-.814.252-.16.62-.46 1.107-.896.486-.436.828-.833 1.027-1.19h1.44v10.47h3.39v1.765zm5.216.185c-1.47 0-2.602-.57-3.398-1.708s-1.194-2.587-1.194-4.343c0-1.894.417-3.42 1.25-4.573.835-1.154 1.955-1.73 3.36-1.73 1.013 0 1.87.27 2.57.813.698.54 1.22 1.293 1.562 2.256.343.963.514 1.866.514 2.71 0 1.41-.16 2.568-.483 3.473a4.994 4.994 0 0 1-1.534 2.23c-.702.58-1.584.872-2.643.872zm-.008-1.695c.61 0 1.1-.187 1.476-.562s.63-.9.764-1.572.202-1.604.202-2.793c0-.984-.166-1.918-.496-2.802-.33-.884-.965-1.326-1.9-1.326-1.63 0-2.443 1.505-2.443 4.514 0 1.364.173 2.462.518 3.293.345.83.97 1.245 1.88 1.245z"/>
    </g>
</svg>
