<svg xmlns="http://www.w3.org/2000/svg" viewBox="0 0 60 60">
    <style>
        @import url(styles.css);
    </style>
    <g fill="#FFF">
        <path class="icon-colour" d="M36.362 37.093h-3.29v3.288h3.29v-3.285zm-4.634-8.8H28.44v3.288h3.288v-3.284zm4.634 4.4h-3.29v3.287h3.29v-3.287zm4.63-4.4h-3.288v3.288h3.287v-3.284zm-9.264 4.4H28.44v3.287h3.288v-3.287zm4.634-4.4h-3.29v3.288h3.29v-3.284zm4.63 4.4h-3.288v3.287h3.287v-3.287zm-18.527 4.4h-3.287v3.288h3.287v-3.285zm0-4.4h-3.287v3.287h3.287v-3.287zm17.68-15.99v1.444a2.738 2.738 0 1 1-3.624 0v-1.443H23.73v1.443a2.738 2.738 0 1 1-3.624 0v-1.443H14v29.14h32v-29.14h-5.855zm2.932 26.218H16.923V24.72h26.155V42.92zm-15.98-14.624H23.81v3.287h3.29l-.002-3.286zm0 8.8H23.81v3.287h3.29l-.002-3.287zm4.63 0H28.44v3.287h3.29v-3.287zm-4.63-4.4H23.81v3.286h3.29l-.002-3.286zM21.915 21.79c.753 0 1.363-.61 1.363-1.363v-4.91a1.363 1.363 0 0 0-2.726 0v4.91c0 .752.61 1.362 1.364 1.362zm16.42 0c.752 0 1.362-.61 1.362-1.363v-4.91a1.363 1.363 0 0 0-2.726 0v4.91c0 .752.61 1.362 1.365 1.362z"/>
        <path class="icon-colour" d="M37.752 37.093h3.29v3.29h-3.29z"/>
    </g>
</svg>
