<svg xmlns="http://www.w3.org/2000/svg" viewBox="0 0 60 60">
    <style>
        @import url(styles.css);
    </style>
    <g fill="#FFF">
        <path class="icon-colour" d="M38 16.117V21h4z"/>
        <path class="icon-colour" d="M37 17H18v27h24V22h-5v-5zm-5 23h-4v-4h4v4zm4.236-13.445a4.51 4.51 0 0 1-.5 1.216 4.61 4.61 0 0 1-.715.9 8.59 8.59 0 0 1-.817.7c-.282.21-.563.42-.845.62a6.328 6.328 0 0 0-.78.66c-.237.24-.25.504-.427.795-.175.29-.15.63-.15 1.017V34h-4v-1.724c0-.582.15-1.084.3-1.507a5.3 5.3 0 0 1 .553-1.125c.21-.325.45-.608.705-.845.256-.237.52-.462.783-.673.265-.21.513-.41.743-.595a4.07 4.07 0 0 0 .61-.608 2.91 2.91 0 0 0 .422-.727 2.49 2.49 0 0 0 .16-.925c0-.81-.2-1.41-.596-1.797-.398-.387-.95-.58-1.653-.58-.477 0-.886.092-1.23.276a2.454 2.454 0 0 0-.846.743c-.22.308-.38 1.005-.487 1.418-.106.415-.158 1.67-.158 1.67H23.42c.016-1 .18-2.16.49-2.95.306-.793.738-1.65 1.293-2.23.555-.58 1.225-1.12 2.01-1.445a6.815 6.815 0 0 1 2.63-.53c1.248 0 2.294.15 3.13.493.836.344 1.51.76 2.022 1.272.51.51.875 1.055 1.096 1.645.223.59.333 1.138.333 1.65 0 .635-.062 1.183-.186 1.65z"/>
    </g>
</svg>
