<svg xmlns="http://www.w3.org/2000/svg" viewBox="0 0 60 60">
    <style>
        @import url(styles.css);
    </style>
    <path class="icon-colour" d="M45.563 40.96l-.193-.194-7.714-7.715a12.617 12.617 0 0 0 1.708-6.274c.045-7.003-5.596-12.717-12.6-12.76h-.085c-6.968 0-12.637 5.624-12.68 12.6-.046 7.003 5.595 12.717 12.6 12.763h.082c2.328 0 4.51-.63 6.386-1.728l7.707 7.71.193.19a1.49 1.49 0 0 0 2.112 0l2.48-2.48a1.492 1.492 0 0 0 0-2.11zm-18.94-4.818c-5.21-.033-9.422-4.3-9.39-9.507.034-5.176 4.272-9.39 9.447-9.39h.063a9.394 9.394 0 0 1 6.663 2.81 9.382 9.382 0 0 1 2.724 6.7 9.393 9.393 0 0 1-2.79 6.643 9.39 9.39 0 0 1-6.656 2.744h-.062z" fill="#FFF"/>
</svg>
