<svg xmlns="http://www.w3.org/2000/svg" viewBox="0 0 60 60">
    <style>
        @import url(styles.css);
    </style>
    <path class="icon-colour" d="M18.083 16.38v27.24h23.833V16.38H18.083zm10.215 22.983H22.34v-5.958h5.958v5.958zm0-11.917H22.34v-5.958h5.958v5.958zm10.214 4.684c-2.554 2.554-3.83 6.384-3.83 6.384l-2.98-2.98.427-.85 2.125 1.702c1.702-3.405 4.256-4.682 4.256-4.682v.426zm0-10.216c-2.554 2.554-3.83 6.384-3.83 6.384l-2.98-2.98.427-.85 2.125 1.702c1.702-3.405 4.256-4.682 4.256-4.682v.426z" fill="#FFF"/>
</svg>
