<svg xmlns="http://www.w3.org/2000/svg" viewBox="0 0 60 60">
    <style>
        @import url(styles.css);
    </style>
    <path class="icon-colour" d="M20.392 44.577c-1.622 0-3.26-.64-4.506-1.886A6.382 6.382 0 0 1 14 38.187a5.947 5.947 0 0 1 1.733-4.224l.267-.265L31.992 17.7c1.52-1.523 3.542-2.28 5.556-2.277a8.44 8.44 0 0 1 5.958 2.495A8.44 8.44 0 0 1 46 23.874c.002 2.014-.754 4.035-2.277 5.558L30.296 42.858l-1 1-1.998-2 14.427-14.425c.966-.97 1.447-2.235 1.45-3.56 0-1.402-.55-2.84-1.667-3.956a5.61 5.61 0 0 0-3.96-1.668c-1.322 0-2.588.48-3.556 1.45L17.997 35.69l-.266.266c-.6.603-.9 1.39-.902 2.225a3.56 3.56 0 0 0 1.06 2.51 3.553 3.553 0 0 0 2.506 1.058 3.12 3.12 0 0 0 2.227-.905L33.935 29.53l.948-.948c.227-.228.34-.52.342-.853 0-.35-.137-.72-.43-1.017a1.433 1.433 0 0 0-1.015-.43 1.186 1.186 0 0 0-.855.342l-10.43 10.43L20.5 35.06l10.43-10.43a4.01 4.01 0 0 1 2.85-1.17c1.09 0 2.184.428 3.015 1.26a4.27 4.27 0 0 1 1.258 3.01 4.02 4.02 0 0 1-1.17 2.852l-.95.948-11.317 11.315a5.942 5.942 0 0 1-4.214 1.732h-.01z" fill="#FFF"/>
</svg>
