<svg xmlns="http://www.w3.org/2000/svg" viewBox="0 0 60 60">
    <style>
        @import url(styles.css);
    </style>
    <path class="icon-colour" d="M45.777 34.925l-2.836-9.987a4.39 4.39 0 0 0-1.99-3.77l-.192-.984s.062-.865-2.057-.72c-2.027-.09-1.97.72-1.97.72l-.14.53C35.905 21.046 35.32 22 34.888 22H25.13c-.43 0-1.024-.973-1.72-1.31l-.14-.616s.057-.767-1.97-.676c-2.12-.145-2.057.74-2.057.74l-.195.996a4.4 4.4 0 0 0-1.99 3.68v.098L14.224 34.9s-1.213 3.942 2.02 5.51c0 0 2.225 1.35 4.75-2.83 2.516-4.162 2.524-4.093 2.524-4.093s.09.14.246.152c1.68.364 3.974.36 4.54-1.64h.215-.024 3.202l.002-.11c.564 1.802 2.858 2.07 4.538 1.704.156-.01.246-.055.246-.055s.008-.085 2.523 4.077c2.526 4.18 4.75 2.822 4.75 2.822 3.233-1.567 2.02-5.516 2.02-5.516zM21.5 27.97a1.83 1.83 0 1 1 0-3.662 1.83 1.83 0 0 1 0 3.663zm10.052 2.944h-.32l-.005-.012h.352v.088l-.03-.076zm7.374-2.943a1.83 1.83 0 1 1 0-3.66 1.83 1.83 0 0 1 0 3.662z" fill="#FFF"/>
</svg>
