<svg xmlns="http://www.w3.org/2000/svg" viewBox="0 0 60 60">
    <style>
        @import url(styles.css);
    </style>
    <path class="icon-colour" d="M40.062 31.193c0-.556-.45-1.006-1.007-1.006h-3.413L32.83 22.61a4.408 4.408 0 0 0 1.483-3.303 4.423 4.423 0 0 0-3.344-4.288V12.5h-2.39v2.587a4.422 4.422 0 0 0-1.62 7.523l-2.815 7.578h-3.202a1.005 1.005 0 0 0 0 2.012H23.4l-.686 1.847.348 1.5-2.576 6.937.734 5.016 5.68-15.3h5.986l5.68 15.3.735-5.018-2.572-6.938.348-1.5-.687-1.846h2.666c.557 0 1.008-.45 1.008-1.005zM29.892 16.8a2.39 2.39 0 1 1 0 4.778 2.39 2.39 0 0 1 0-4.78zm0 6.927l.09-.003-.09.144-.09-.144.09.003zm-2.245 6.46l2.245-6.05 2.247 6.05h-4.495z" fill="#FFF"/>
</svg>
