<svg xmlns="http://www.w3.org/2000/svg" viewBox="0 0 60 60">
    <style>
        @import url(styles.css);
    </style>
    <path class="icon-colour" d="M14.887 37.203c-.13-1.213.612-2.122.612-2.122s-1.09-.606-.918-2.253c.174-1.646 1.685-2.063 1.685-2.063s-1.122-.71-.43-2.4c.695-1.69 2.094-1.34 2.094-1.34s-.27-1.26.68-2.43c.954-1.17 2.474-1.063 2.474-1.063s.17-1.84 2.77-2.792c2.6-.953 4.073.26 4.073.26s.91-1.948 3.856-2.08c2.946-.13 4.397 1.298 4.397 1.298s-.107-1.774-2.403-2.294c-.51-.115-1.457-.174-1.906.045-.6-.838-1.65-1.092-3.51-.996-1.935.1-3.455 1.077-3.64 2.34-.24-.032-1.602-1.214-4.115-.304-2.514.91-2.68 2.28-2.893 2.912-1.916-.442-3.396 1.26-3.396 2.592 0 .318.088.62.244.904-1.234.09-2.102 1.337-2.102 2.442 0 .47.16.912.438 1.296-1.01.432-1.563 1.323-1.563 2.375 0 .758.218 1.458.796 1.943a3.892 3.892 0 0 0-.403 1.715c0 2.274 1.997 4.16 4.6 4.492-.765-.786-1.307-1.26-1.437-2.474z" fill="#FFF"/>
    <path class="icon-colour" d="M48.667 35.672a3.822 3.822 0 0 0-1.083-2.688 3.777 3.777 0 0 0 .398-1.686c0-1.722-1.15-3.182-2.75-3.715-.128-1.68-1.57-3.027-3.396-3.183-.515-1.52-1.844-2.605-3.406-2.605a3.34 3.34 0 0 0-1.47.342c-.6-.837-2.532-1.617-4.828-1.357-2.28.258-3.12 2.426-3.12 2.426s-1.3-1.212-3.336-.65c-2.037.564-2.383 2.557-2.383 2.557s-1.214-.26-2.557.91c-1.156 1.008-.996 2.612-.996 2.612s-.737-.315-1.517.768c-.78 1.083-.174 2.08-.174 2.08s-.87.043-1.128 1.516c-.248 1.4.434 2.12.434 2.12s-.772.59-.45 3.287c.32 2.694 3.632 4.694 6.613 4.43 2.98-.262 4.66-3.98 10.275-3.98 5.677 0 4.5 4.154 7.347 4.192 2.847.04 4.056-1.687 4.056-2.664a3.6 3.6 0 0 0-.133-.953h.01c1.98 0 3.59-1.684 3.59-3.762z" fill="#FFF"/>
</svg>
