<svg xmlns="http://www.w3.org/2000/svg" viewBox="0 0 60 60">
    <style>
        @import url(styles.css);
    </style>
    <path class="icon-colour" d="M43.468 35.93H16.532l-2 3.896h30.935l-2-3.896zm-16.84 2.96l.83-1.577h5.167l.748 1.577h-6.745zm16.378-3.863c0-.024-.005-.048-.007-.072 0-.024.004-.048.004-.072v-16.12a.74.74 0 0 0-.74-.74h-24.53a.74.74 0 0 0-.74.74v16.12c0 .024.004.048.006.072 0 .024-.006.048-.006.072l-.007.012h26.025l-.006-.015zm-1.847-1.25H18.84V19.873h22.32V33.78zm4.76 6.937H14.078l-.077.15c0 .41.33 1.112.74 1.112h30.52c.41 0 .74-.7.74-1.11l-.077-.152z" fill="#FFF"/>
</svg>
