<svg xmlns="http://www.w3.org/2000/svg" viewBox="0 0 60 60">
    <style>
        @import url(styles.css);
    </style>
    <path class="icon-colour" d="M30.623 16.645V14h-1.816v2.645H14.164v4.685h1.607v17.69h11.19l-6.805 5.575L21.305 46l8.522-6.98h.06L38.41 46l1.15-1.405-6.807-5.575H43.9V21.33h1.936v-4.685H30.623zm11.46 20.56H17.588V21.33h24.497v15.875zm-18.534-4.09v-4.72h4.72a4.72 4.72 0 1 0-4.72 4.72zm1.322 1.287a4.72 4.72 0 0 0 4.72-4.72h-4.72v4.72zM39.31 24.71h-6.036v1.816h6.037V24.71zm0 3.333h-6.036v1.816h6.037v-1.82zm0 3.333h-6.036v1.817h6.037v-1.817z" fill="#FFF"/>
</svg>
