<svg xmlns="http://www.w3.org/2000/svg" viewBox="0 0 60 60">
    <style>
        @import url(styles.css);
    </style>
    <path class="icon-colour" d="M43.92 38.753l1.948-.563.132-1.195-1.777-.975a6.517 6.517 0 0 0-.238-1.204l1.275-1.644-.605-1.088-2.052.26a6.515 6.515 0 0 0-.996-.912l.066-2.026-1.097-.495L39.1 30.3a6.853 6.853 0 0 0-.656-.105c-.292-.032-.484-.036-.58-.04l-1.135-1.673-.59.11 1.344-.428.06-1.374-1.842-.767-.13-1.085 1.534-1.28-.462-1.294-1.996-.017-.6-1.067.914-1.774-.93-1.014-1.846.76-.86-.676.18-1.988-1.242-.59-1.423 1.4s-.326-.048-.81-.162c-.373-.09-.37-.166-.37-.166l-.605-1.903-1.376-.06-.767 1.843-1.086.13-1.277-1.535-1.294.462-.018 1.996-1.067.6-1.772-.915-1.015.93.76 1.844-.676.86-1.99-.18-.588 1.242 1.397 1.424s-.128.476-.204.798c-.054.23-.125.38-.125.38l-1.9.608-.06 1.374 1.842.767.13 1.085-1.536 1.28.463 1.294 1.996.017.602 1.07-.916 1.775.93 1.013 1.843-.76.858.676-.18 1.99 1.244.588 1.423-1.397s.46.123.757.194c.252.06.423.133.423.133l.606 1.903 1.375.06.77-1.843 1.083-.13 1.28 1.534 1.295-.462.01-.958.926.506a6.28 6.28 0 0 0 .274 1.352l-1.245 1.6.597 1.046 2.012-.254a6.502 6.502 0 0 0 1.074.962l-.067 1.998 1.092.47 1.472-1.386a6.78 6.78 0 0 0 1.236.13l1.135 1.677 1.18-.244.377-1.99a6.323 6.323 0 0 0 1.17-.672l1.946.7.828-.927-.885-1.884a6.637 6.637 0 0 0 .5-1.124zm-8.513-9.57c.054-.228.1-.325.134-.37l-.224 1.198-.06-.06s.05-.325.153-.764zm-10.75 2.535a4.958 4.958 0 1 1 2.264-9.655 4.958 4.958 0 0 1-2.262 9.655zM39.38 39.58a3.33 3.33 0 1 1-3.3-5.786 3.33 3.33 0 0 1 3.3 5.787z" fill="#FFF"/>
</svg>
