<svg xmlns="http://www.w3.org/2000/svg" viewBox="0 0 60 60">
    <style>
        @import url(styles.css);
    </style>
    <path class="icon-colour" d="M35.484 23.127a8.772 8.772 0 0 1 3.22 6.898l7.064 2.68c1.123-6.526-1.926-13.13-7.66-16.492l-2.624 6.914zm-12.152 1.066a8.753 8.753 0 0 1 6.585-3.033l2.636-6.954c-6.35-1.034-12.755 1.88-16.148 7.36l6.927 2.627zm.795 12.232a8.773 8.773 0 0 1-2.917-6.717l-6.937-2.633a16.012 16.012 0 0 0 7.162 16.443l2.692-7.093zm12.506-.87a8.768 8.768 0 0 1-7.032 3.09L26.927 45.7c6.596 1.3 13.336-1.702 16.788-7.46l-7.08-2.684z" fill="#FFF"/>
</svg>
