<svg xmlns="http://www.w3.org/2000/svg" viewBox="0 0 60 60">
    <style>
        @import url(styles.css);
    </style>
    <path class="icon-colour" d="M46 31.744v-3.64l-.514-.17-3.898-1.272-1.04-2.512 2-4.23-2.576-2.576-.483.245-3.658 1.854-2.512-1.04L31.745 14h-3.64l-.17.516-1.272 3.898-2.51 1.04-4.233-1.998-2.576 2.574.245.482 1.854 3.658-1.038 2.51L14 28.255V31.9l.514.167 3.9 1.273 1.04 2.51-2 4.232 2.573 2.576.483-.246 3.657-1.857 2.51 1.04L28.257 46h3.64l.17-.515 1.272-3.898 2.51-1.04 4.23 2 2.575-2.576-.245-.48-1.856-3.655 1.04-2.512L46 31.745zM30 35.1a5.098 5.098 0 0 1-5.098-5.1A5.1 5.1 0 1 1 30 35.1z" fill="#FFF"/>
</svg>
